<svg xmlns="http://www.w3.org/2000/svg" width="512" height="256" viewBox="0 0 512 256" role="img" aria-label="SuperCheck Libreria">
  <rect width="512" height="256" rx="28" fill="#13231f" />
  <rect x="34" y="42" width="444" height="98" rx="18" fill="#f8fafc" />
  <path d="M72 64h68c16 0 28 12 28 28v32H90c-10 0-18-8-18-18V64Z" fill="#1f7a5c" />
  <path d="M174 64h68c16 0 28 12 28 28v32h-78c-10 0-18-8-18-18V64Z" fill="#eab308" />
  <path d="M276 64h68c16 0 28 12 28 28v32h-78c-10 0-18-8-18-18V64Z" fill="#2563eb" />
  <path d="M382 64h54c10 0 18 8 18 18v42h-54c-10 0-18-8-18-18V64Z" fill="#dc2626" />
  <path d="M92 86h54M194 86h54M296 86h54M402 86h34" stroke="#f8fafc" stroke-width="8" stroke-linecap="round" opacity=".9" />
  <text
    x="36"
    y="196"
    fill="#f8fafc"
    font-family="Arial Black, Arial, sans-serif"
    font-size="46"
    font-weight="800"
    letter-spacing="0"
  >
    SUPERCHECK
  </text>
  <text
    x="369"
    y="196"
    fill="#eab308"
    font-family="Arial, sans-serif"
    font-size="28"
    font-weight="800"
    letter-spacing="0"
  >
    LIBRERIA
  </text>
</svg>
